<?xml version="1.0" encoding="utf-8"?>
<!-- Generator: Adobe Illustrator 16.0.0, SVG Export Plug-In . SVG Version: 6.00 Build 0)  -->
<!DOCTYPE svg PUBLIC "-//W3C//DTD SVG 1.1//EN" "http://www.w3.org/Graphics/SVG/1.1/DTD/svg11.dtd">
<svg version="1.1" id="图层_1" xmlns="http://www.w3.org/2000/svg" xmlns:xlink="http://www.w3.org/1999/xlink" x="0px" y="0px"
	 width="44px" height="44px" viewBox="0 0 44 44" enable-background="new 0 0 44 44" xml:space="preserve">
<path fill="#39B272" d="M21.998,0c6.077,0,11.577,2.462,15.558,6.444C41.54,10.427,44,15.926,44,21.999
	c0,6.074-2.46,11.574-6.444,15.556C33.575,41.536,28.072,44,21.998,44c-6.073,0-11.575-2.464-15.554-6.445
	C2.464,33.572,0,28.073,0,21.999c0-6.073,2.464-11.574,6.444-15.555C10.425,2.462,15.925,0,21.998,0L21.998,0z M21.998,7.894
	c-3.893,0-7.418,1.578-9.973,4.133c-2.553,2.551-4.134,6.078-4.134,9.973c0,0.182,0.006,0.361,0.012,0.54h1.504l0,0h2.071v-1.081
	H9.407c0.078-1.9,0.58-3.696,1.415-5.289l1.796,1.039l0.541-0.937l-1.797-1.039c0.494-0.776,1.074-1.497,1.725-2.147
	c0.649-0.65,1.37-1.228,2.148-1.723l1.039,1.799l0.936-0.543l-1.04-1.799c1.591-0.832,3.388-1.336,5.292-1.415v2.073h1.078V9.404
	c1.902,0.079,3.695,0.583,5.293,1.415l-1.04,1.799l0.935,0.543l1.038-1.799c0.778,0.495,1.499,1.072,2.149,1.723
	c0.647,0.65,1.227,1.371,1.722,2.147l-1.798,1.042l0.541,0.934l1.799-1.039c0.834,1.593,1.334,3.389,1.416,5.289h-2.074v1.08h2.074
	h0.623h0.881c0.004-0.178,0.008-0.357,0.008-0.539c0-3.895-1.58-7.42-4.131-9.973C29.423,9.472,25.896,7.894,21.998,7.894
	L21.998,7.894z M33.044,27.083h0.742v-1.559h1.539v-0.621h-1.539v-0.871h1.783v-0.62h-2.525V27.083L33.044,27.083z M8.333,27.083
	h2.79v-0.62H9.077v-0.995h1.836v-0.619H9.077v-0.816h1.977v-0.62H8.333V27.083L8.333,27.083z M19.079,10.263l1.52,8.666
	c-1.166,0.531-1.974,1.707-1.974,3.07c0,1.773,1.366,3.224,3.103,3.363l0.275,1.564l1.947-0.394l-0.361-1.556
	c1.06-0.568,1.783-1.688,1.783-2.979c0-1.824-1.445-3.308-3.254-3.371l-1.98-8.58L19.079,10.263L19.079,10.263z M34.374,9.626
	c-3.166-3.167-7.543-5.127-12.376-5.127c-4.831,0-9.207,1.96-12.372,5.127c-3.166,3.166-5.123,7.542-5.123,12.373
	c0,4.833,1.957,9.207,5.123,12.373c3.165,3.168,7.542,5.125,12.372,5.125c4.833,0,9.21-1.957,12.376-5.125
	c3.168-3.166,5.125-7.54,5.125-12.373C39.499,17.168,37.542,12.792,34.374,9.626z"/>
</svg>
