<?xml version="1.0" encoding="utf-8"?>
<!-- Generator: Adobe Illustrator 16.0.0, SVG Export Plug-In . SVG Version: 6.00 Build 0)  -->
<!DOCTYPE svg PUBLIC "-//W3C//DTD SVG 1.1//EN" "http://www.w3.org/Graphics/SVG/1.1/DTD/svg11.dtd">
<svg version="1.1" id="图层_1" xmlns="http://www.w3.org/2000/svg" xmlns:xlink="http://www.w3.org/1999/xlink" x="0px" y="0px"
	 width="36px" height="36px" viewBox="0 0 36 36" enable-background="new 0 0 36 36" xml:space="preserve">
<g>
	<path fill="#CD2146" d="M35.421,27.907c-0.022-0.073-0.054-0.147-0.097-0.223c-3.306-5.834-6.612-11.669-9.918-17.503
		c-1.157-2.043-2.314-4.085-3.472-6.127c-2.17-3.828-6.015-3.015-7.966,0.43c-3.668,6.474-7.335,12.946-11.003,19.418
		C1.771,26.009-0.01,28.342,0,30.849c0.012,3.354,3.799,3.629,6.282,3.629c6.495,0,12.992,0,19.488,0c1.894,0,3.786,0,5.68,0
		C35.475,34.478,36.921,31.241,35.421,27.907z M26.218,32.427c-4.311,0-8.623,0-12.934,0c-2.824,0-5.649,0-8.473,0
		c-5.044,0-1.478-5.014-0.274-7.138c3.706-6.54,7.412-13.08,11.117-19.62c1.029-1.813,3.166-2.949,4.537-0.529
		c0.455,0.803,0.91,1.605,1.364,2.408c1.991,3.513,3.98,7.023,5.971,10.536c2.01,3.545,4.018,7.09,6.027,10.635
		C35.834,33.381,28.82,32.427,26.218,32.427z"/>
	<path fill="#CD2146" d="M17.891,21.465c0.455-0.025,0.768-0.338,0.792-0.793c0.025-0.453-0.375-0.77-0.792-0.792
		c-0.453-0.023-0.77,0.374-0.792,0.792C17.075,21.126,17.473,21.441,17.891,21.465z"/>
	<path fill="#CD2146" d="M17.392,19.038c0,0.159,0.133,0.293,0.292,0.293c0.139,0,0.276,0,0.415,0c0.159,0,0.292-0.134,0.292-0.293
		c0-0.128,0-0.256,0-0.383c0.007-0.618,0.06-1.226,0.133-1.838c0.045-0.369,0.146-0.852,0.045-1.22
		c-0.162-0.596-0.761-0.782-1.212-0.334l-0.072,0.132l-0.002-0.002C17.067,16,17.248,16.721,17.32,17.34
		C17.387,17.904,17.392,18.471,17.392,19.038z"/>
	<path fill="#CD2146" d="M17.966,24.175c2.787,0,5.049-2.261,5.049-5.048c0-0.927-0.252-1.819-0.72-2.598
		c-0.002-0.001-0.003-0.002-0.004-0.003c-0.042-0.08-0.107-0.203-0.208-0.384c-0.188-0.339-0.42-0.736-0.694-1.189
		c-0.779-1.289-1.749-2.768-2.923-4.415c-0.019-0.026-0.046-0.043-0.068-0.064c-0.022-0.023-0.037-0.052-0.064-0.071
		c-0.007-0.005-0.016-0.006-0.023-0.011c-0.038-0.026-0.079-0.042-0.122-0.059c-0.033-0.012-0.063-0.029-0.097-0.036
		c-0.041-0.009-0.081-0.006-0.122-0.006c-0.038,0-0.075-0.004-0.113,0.003c-0.036,0.006-0.069,0.022-0.104,0.036
		c-0.04,0.016-0.08,0.029-0.118,0.052c-0.008,0.006-0.018,0.006-0.024,0.012c-0.027,0.02-0.042,0.047-0.064,0.069
		c-0.023,0.021-0.052,0.037-0.072,0.063c-1.231,1.652-2.218,3.138-2.981,4.433c-0.268,0.456-0.49,0.857-0.668,1.199
		c-0.092,0.177-0.151,0.298-0.191,0.382c-0.464,0.776-0.713,1.663-0.713,2.587C12.918,21.914,15.178,24.175,17.966,24.175z
		 M15.551,15.584c0.633-1.072,1.437-2.292,2.405-3.629c0.932,1.338,1.729,2.56,2.379,3.635c0.268,0.441,0.49,0.826,0.673,1.152
		c0.108,0.194,0.178,0.323,0.211,0.387c0.004,0.009,0.012,0.014,0.016,0.021c0.003,0.005,0.003,0.01,0.005,0.014
		c0.354,0.589,0.544,1.261,0.544,1.963c0,2.107-1.71,3.817-3.817,3.817c-2.108,0-3.817-1.71-3.817-3.817
		c0-0.703,0.189-1.376,0.542-1.963c0.005-0.007,0.005-0.016,0.009-0.023c0.007-0.015,0.021-0.022,0.026-0.036
		c0.028-0.061,0.089-0.188,0.188-0.378C15.082,16.404,15.294,16.022,15.551,15.584z"/>
	<path fill="#CD2146" d="M27.364,27.001c-0.354-0.149-0.76,0.017-0.909,0.37c-0.397,0.935-1.315,1.556-2.349,1.556
		c-1.047,0-1.975-0.637-2.361-1.59c-0.146-0.354-0.55-0.526-0.905-0.382c-0.103,0.041-0.184,0.107-0.252,0.185
		c-0.067,0.063-0.123,0.141-0.161,0.231c-0.396,0.935-1.313,1.556-2.348,1.556s-1.951-0.623-2.346-1.557
		c-0.063-0.188-0.195-0.349-0.393-0.429c-0.355-0.143-0.76,0.03-0.903,0.386c-0.384,0.959-1.315,1.6-2.366,1.6
		c-1.058,0-1.993-0.651-2.372-1.618c-0.14-0.357-0.544-0.534-0.9-0.394c-0.357,0.14-0.533,0.542-0.394,0.899
		c0.586,1.497,2.033,2.501,3.666,2.501c1.188,0,2.272-0.533,3.004-1.396c0.731,0.863,1.816,1.396,3.004,1.396
		c1.191,0,2.283-0.534,3.016-1.406c0.731,0.87,1.821,1.406,3.012,1.406c1.596,0,3.017-0.958,3.628-2.403
		C27.884,27.559,27.718,27.15,27.364,27.001z"/>
</g>
</svg>
