<?xml version="1.0" encoding="utf-8"?>
<!-- Generator: Adobe Illustrator 16.0.0, SVG Export Plug-In . SVG Version: 6.00 Build 0)  -->
<!DOCTYPE svg PUBLIC "-//W3C//DTD SVG 1.1//EN" "http://www.w3.org/Graphics/SVG/1.1/DTD/svg11.dtd">
<svg version="1.1" id="图层_1" xmlns="http://www.w3.org/2000/svg" xmlns:xlink="http://www.w3.org/1999/xlink" x="0px" y="0px"
	 width="226px" height="35px" viewBox="0 0 226 35" enable-background="new 0 0 226 35" xml:space="preserve">
<g>
	<rect x="51.333" y="18.896" fill="#004FA1" width="0.34" height="7.347"/>
	<rect x="52.026" y="25.771" fill="#004FA1" width="0.35" height="0.471"/>
	<path fill="#004FA1" d="M54.355,26.242c-0.175,0-0.356-0.026-0.542-0.077c-0.187-0.052-0.356-0.148-0.51-0.294
		c-0.153-0.146-0.278-0.345-0.372-0.594c-0.096-0.251-0.142-0.58-0.142-0.987v-1.289c0-0.625,0.126-1.104,0.383-1.439
		c0.27-0.334,0.665-0.501,1.183-0.501c0.527,0,0.92,0.167,1.184,0.501c0.263,0.327,0.394,0.808,0.394,1.439v1.289
		c0,0.407-0.048,0.736-0.143,0.987c-0.096,0.249-0.219,0.447-0.373,0.594c-0.153,0.146-0.322,0.242-0.509,0.294
		C54.723,26.216,54.538,26.242,54.355,26.242z M54.355,21.397c-0.416,0-0.719,0.129-0.909,0.382
		c-0.212,0.27-0.318,0.677-0.318,1.222v1.289c0,0.553,0.106,0.963,0.318,1.231c0.197,0.255,0.5,0.381,0.909,0.381
		c0.401,0,0.709-0.126,0.92-0.381c0.205-0.254,0.307-0.665,0.307-1.231v-1.289c0-0.559-0.102-0.967-0.307-1.222
		C55.072,21.526,54.765,21.397,54.355,21.397z"/>
	<rect x="56.098" y="25.771" fill="#004FA1" width="0.351" height="0.471"/>
	<polygon fill="#004FA1" points="59.827,19.233 58.052,19.233 58.052,26.23 57.713,26.23 57.713,19.233 55.949,19.233 
		55.949,18.884 59.827,18.884 	"/>
	<rect x="58.746" y="25.771" fill="#004FA1" width="0.35" height="0.471"/>
	<path fill="#004FA1" d="M62.621,26.242c-0.175,0-0.356-0.026-0.542-0.077c-0.186-0.052-0.356-0.148-0.51-0.294
		c-0.153-0.146-0.278-0.345-0.372-0.594c-0.095-0.251-0.143-0.58-0.143-0.987v-3.456c0-0.624,0.128-1.104,0.383-1.438
		c0.271-0.334,0.665-0.501,1.184-0.501c0.526,0,0.92,0.167,1.184,0.501c0.263,0.326,0.394,0.807,0.394,1.438v3.456
		c0,0.407-0.047,0.736-0.142,0.987c-0.094,0.249-0.22,0.447-0.373,0.594c-0.154,0.146-0.323,0.242-0.51,0.294
		C62.988,26.216,62.804,26.242,62.621,26.242z M62.621,19.233c-0.416,0-0.72,0.127-0.91,0.381c-0.211,0.269-0.318,0.676-0.318,1.22
		v3.456c0,0.553,0.107,0.963,0.318,1.231c0.198,0.255,0.5,0.381,0.91,0.381c0.402,0,0.708-0.126,0.92-0.381
		c0.205-0.254,0.307-0.665,0.307-1.231v-3.456c0-0.559-0.103-0.965-0.307-1.22C63.337,19.36,63.03,19.233,62.621,19.233z"/>
	<path fill="#004FA1" d="M66.258,26.23c-0.525,0-0.92-0.168-1.182-0.502c-0.263-0.313-0.395-0.792-0.395-1.438v-0.163h0.339v0.163
		c0,0.363,0.04,0.65,0.121,0.86c0.08,0.212,0.181,0.371,0.302,0.48c0.12,0.108,0.253,0.18,0.4,0.213
		c0.146,0.033,0.285,0.048,0.415,0.048c0.395,0,0.7-0.136,0.916-0.407c0.214-0.273,0.323-0.653,0.323-1.14
		c0-0.262-0.045-0.481-0.137-0.659c-0.091-0.179-0.201-0.325-0.329-0.442c-0.128-0.116-0.261-0.206-0.4-0.271
		c-0.139-0.066-0.252-0.116-0.34-0.153l-0.186-0.076c-0.109-0.044-0.245-0.106-0.406-0.19c-0.161-0.083-0.315-0.2-0.465-0.35
		c-0.149-0.148-0.279-0.333-0.389-0.555c-0.11-0.223-0.165-0.492-0.165-0.813c0-0.552,0.128-1.005,0.383-1.36
		c0.292-0.393,0.691-0.59,1.194-0.59c0.519,0,0.917,0.171,1.195,0.513c0.263,0.326,0.395,0.807,0.395,1.438v0.175h-0.351v-0.175
		c0-0.552-0.106-0.962-0.317-1.23c-0.198-0.247-0.505-0.37-0.922-0.37c-0.394,0-0.697,0.148-0.909,0.445
		c-0.219,0.299-0.329,0.685-0.329,1.155c0,0.263,0.044,0.484,0.131,0.666c0.088,0.182,0.196,0.334,0.325,0.457
		c0.126,0.124,0.26,0.223,0.399,0.295c0.138,0.072,0.264,0.131,0.373,0.174l0.175,0.076c0.095,0.036,0.222,0.094,0.383,0.17
		c0.161,0.075,0.318,0.186,0.472,0.327c0.153,0.142,0.286,0.321,0.4,0.54c0.113,0.217,0.17,0.485,0.17,0.806
		c0,0.545-0.132,0.987-0.395,1.33C67.168,26.045,66.77,26.23,66.258,26.23z"/>
	<polygon fill="#004FA1" points="64.673,8.418 64.673,8.231 66.006,8.231 66.006,8.418 65.45,8.418 65.45,9.89 65.229,9.89 
		65.229,8.418 	"/>
	<polygon fill="#004FA1" points="66.498,8.231 67.023,9.625 67.551,8.231 67.854,8.231 67.854,9.89 67.645,9.89 67.645,8.511 
		67.64,8.511 67.12,9.89 66.93,9.89 66.409,8.511 66.405,8.511 66.405,9.89 66.195,9.89 66.195,8.231 	"/>
	<path fill="#0050A2" d="M11.779,14.036h-0.104c-0.027,0.044-3.446,9.425-3.487,9.527c-0.11,0.335-0.233,0.564-0.372,0.688
		c-0.138,0.123-0.365,0.186-0.681,0.186H6.455c-0.317,0-0.547-0.063-0.691-0.186c-0.145-0.123-0.271-0.353-0.382-0.688
		c-0.042-0.117-3.466-9.309-3.466-9.309H1.792v11.602c0,0.16-0.027,0.262-0.081,0.305c-0.054,0.044-0.156,0.066-0.305,0.066H0.388
		c-0.136,0-0.235-0.022-0.296-0.066C0.031,26.118,0,26.017,0,25.856V11.57c0-0.336,0.069-0.602,0.207-0.798
		c0.136-0.197,0.403-0.296,0.801-0.296h0.555c0.301,0,0.531,0.056,0.688,0.164c0.158,0.109,0.305,0.347,0.442,0.71
		c0,0,4.022,11.149,4.051,11.207h0.082C6.84,22.5,10.473,12.432,10.61,12.061c0.137-0.371,0.226-0.608,0.267-0.71
		c0.137-0.363,0.288-0.601,0.452-0.71c0.164-0.108,0.39-0.164,0.678-0.164h0.556c0.411,0,0.682,0.099,0.812,0.296
		c0.13,0.196,0.195,0.462,0.195,0.798v14.286c0,0.16-0.027,0.262-0.082,0.305c-0.053,0.044-0.156,0.066-0.305,0.066h-1.018
		c-0.136,0-0.234-0.022-0.295-0.066c-0.061-0.043-0.091-0.145-0.091-0.305V14.036z"/>
	<path fill="#F08C00" d="M20.059,11.203c0,0.462-0.165,0.856-0.494,1.183c-0.329,0.327-0.724,0.491-1.188,0.491
		c-0.464,0-0.865-0.164-1.204-0.491c-0.338-0.326-0.507-0.721-0.507-1.183c0-0.48,0.168-0.884,0.507-1.211
		c0.339-0.327,0.74-0.49,1.204-0.49c0.464,0,0.86,0.163,1.188,0.49S20.059,10.723,20.059,11.203z"/>
	<path fill="#0050A2" d="M19.335,25.907c0,0.148-0.025,0.241-0.078,0.278c-0.052,0.038-0.145,0.057-0.279,0.057H17.77
		c-0.12,0-0.212-0.019-0.279-0.057c-0.067-0.037-0.101-0.13-0.101-0.278V14.894c0-0.147,0.034-0.241,0.101-0.278
		c0.067-0.036,0.16-0.055,0.279-0.055h1.208c0.134,0,0.228,0.019,0.279,0.055c0.053,0.037,0.078,0.131,0.078,0.278V25.907z"/>
	<path fill="#0050A2" d="M30.052,24.362c0.644,0,1.259-0.073,1.846-0.219c0.584-0.146,1.135-0.336,1.646-0.568
		c0.162-0.073,0.494-0.192,0.639-0.184c0.129,0.009,0.274,0.147,0.275,0.418c0,0.224,0,0.911,0,0.911
		c0,0.247,0.006,0.344-0.02,0.402c-0.029,0.065-0.063,0.093-0.183,0.161c-0.312,0.174-0.684,0.343-1.028,0.454
		c-0.404,0.131-0.806,0.233-1.209,0.307c-0.402,0.072-0.802,0.123-1.197,0.152c-0.396,0.029-0.769,0.045-1.121,0.045
		c-1.024,0-1.943-0.154-2.755-0.46c-0.813-0.306-1.499-0.771-2.054-1.398c-0.557-0.626-0.985-1.421-1.286-2.382
		c-0.3-0.962-0.45-2.105-0.45-3.432c0-1.224,0.161-2.334,0.483-3.332c0.322-0.998,0.776-1.851,1.362-2.557
		c0.586-0.707,1.292-1.25,2.12-1.629c0.827-0.378,1.739-0.567,2.735-0.567c0.629,0,1.282,0.055,1.955,0.163
		c0.673,0.109,1.461,0.254,2.136,0.554c0.09,0.04,0.514,0.228,0.518,0.449l-0.005,1.358c0,0.155-0.111,0.192-0.147,0.2
		c-0.061,0.015-0.131,0.011-0.248-0.048c-1.026-0.452-3.009-0.798-4.122-0.798c-0.835,0-1.548,0.175-2.142,0.524
		c-0.593,0.35-1.083,0.813-1.471,1.388c-0.388,0.576-0.669,1.239-0.846,1.989c-0.176,0.751-0.264,1.518-0.264,2.305
		c0,0.802,0.077,1.552,0.231,2.251c0.153,0.7,0.417,1.311,0.791,1.836c0.373,0.524,0.871,0.939,1.494,1.246
		C28.356,24.209,29.129,24.362,30.052,24.362z"/>
	<path fill="#0050A2" d="M48.825,18.303c0,2.559-0.476,4.521-1.539,5.888c-1.062,1.367-2.639,2.052-4.734,2.052
		c-2.082,0-3.639-0.678-4.672-2.03c-1.033-1.352-1.496-3.292-1.496-5.822c0-1.265,0.104-2.389,0.421-3.37
		c0.316-0.981,0.752-1.806,1.307-2.476c0.555-0.668,1.215-1.178,1.982-1.526c0.766-0.35,1.599-0.523,2.499-0.523
		c1.027,0,1.933,0.178,2.721,0.534c0.787,0.356,1.444,0.872,1.971,1.549c0.528,0.677,0.925,1.493,1.192,2.454
		C48.745,15.99,48.825,17.081,48.825,18.303z M46.896,18.39c0-0.799-0.06-1.566-0.179-2.302c-0.119-0.734-0.338-1.385-0.654-1.951
		c-0.316-0.567-0.748-1.019-1.297-1.353c-0.547-0.334-1.251-0.502-2.108-0.502c-0.759,0-1.413,0.16-1.96,0.479
		c-0.549,0.32-1.002,0.757-1.361,1.309c-0.358,0.554-0.626,1.193-0.802,1.92s-0.263,1.498-0.263,2.313
		c0,0.901,0.07,1.727,0.211,2.476c0.14,0.749,0.376,1.395,0.706,1.94c0.331,0.545,0.77,0.971,1.319,1.277
		c0.547,0.305,1.236,0.457,2.067,0.457c0.815,0,1.5-0.167,2.056-0.502c0.555-0.334,1.001-0.785,1.339-1.353
		c0.337-0.566,0.575-1.214,0.716-1.941C46.826,19.931,46.896,19.175,46.896,18.39z"/>
	<polyline fill="#004FA1" points="118.163,0 118.163,35 118.688,35 118.688,0 	"/>
	<g>
		<path fill="#0050A2" d="M174.778,24.158V12.255h2.233v11.903H174.778z"/>
		<path fill="#0050A2" d="M181.159,16.127h0.031c0.106-0.242,0.24-0.443,0.399-0.604c0.159-0.158,0.327-0.276,0.503-0.356
			c0.176-0.079,0.343-0.132,0.503-0.159c0.158-0.025,0.313-0.04,0.462-0.04c0.616,0,1.117,0.187,1.5,0.556
			c0.382,0.372,0.574,0.947,0.574,1.73v6.904h-2.074v-5.969c0-0.496-0.056-0.864-0.168-1.103c-0.11-0.238-0.348-0.362-0.71-0.373
			c-0.36,0-0.621,0.143-0.781,0.429c-0.159,0.285-0.239,0.693-0.239,1.223v5.793h-2.073v-7.587c0-0.909,0.346-1.364,1.037-1.364
			h1.036V16.127z"/>
		<path fill="#0050A2" d="M190.922,23.206h-0.031c-0.192,0.433-0.43,0.734-0.71,0.904c-0.283,0.169-0.641,0.264-1.077,0.285
			c-0.415,0-0.763-0.085-1.045-0.254s-0.503-0.396-0.662-0.683c-0.159-0.285-0.274-0.603-0.344-0.952s-0.107-0.725-0.119-1.127
			v-3.236c0.021-1.175,0.21-1.992,0.567-2.452c0.355-0.461,0.889-0.702,1.603-0.724c0.457,0,0.83,0.089,1.116,0.263
			c0.287,0.175,0.532,0.469,0.734,0.881h0.031c-0.042-0.243-0.063-0.508-0.063-0.793v-2.904h2.074v10.331
			c0,0.941-0.691,1.413-2.074,1.413V23.206z M190.922,18.539c0-0.03,0-0.079,0-0.143l0.016-0.158c0-0.212-0.014-0.413-0.039-0.604
			c-0.026-0.19-0.075-0.367-0.144-0.531c-0.069-0.164-0.17-0.296-0.304-0.397c-0.133-0.1-0.301-0.15-0.502-0.15
			c-0.383,0-0.626,0.111-0.727,0.333c-0.101,0.223-0.167,0.577-0.199,1.064c0,0.116-0.005,0.227-0.016,0.333v2.982
			c0.031,0.477,0.116,0.852,0.255,1.127c0.139,0.276,0.356,0.413,0.654,0.413c0.67,0,1.005-0.528,1.005-1.587V18.539z"/>
		<path fill="#0050A2" d="M198.962,22.824h-0.032c-0.16,0.529-0.396,0.921-0.711,1.174c-0.313,0.255-0.72,0.387-1.219,0.397
			c-0.776,0-1.306-0.188-1.588-0.563c-0.282-0.376-0.423-0.965-0.423-1.77v-6.855h2.074v6.126c0,0.296,0.013,0.534,0.04,0.714
			c0.026,0.181,0.082,0.339,0.166,0.476c0.183,0.19,0.394,0.286,0.64,0.286c0.223,0,0.401-0.053,0.534-0.158
			c0.133-0.106,0.229-0.246,0.287-0.421c0.057-0.175,0.096-0.354,0.111-0.539c0.017-0.186,0.024-0.411,0.024-0.676v-5.808h2.074
			v8.141c0,0.54-0.331,0.811-0.99,0.811h-0.988V22.824z"/>
		<path fill="#0050A2" d="M204.577,21.047c-0.021,0.275-0.032,0.487-0.032,0.635c0,0.486,0.085,0.797,0.256,0.929
			c0.17,0.132,0.413,0.198,0.732,0.198c0.255,0,0.468-0.074,0.638-0.223c0.171-0.147,0.256-0.333,0.256-0.555
			c0-0.074-0.01-0.148-0.031-0.223c-0.011-0.19-0.088-0.354-0.232-0.491c-0.143-0.139-0.342-0.286-0.598-0.445
			c-0.054-0.032-0.117-0.074-0.19-0.126l-1.134-0.778c-0.553-0.381-0.976-0.794-1.268-1.238c-0.292-0.443-0.438-0.973-0.438-1.587
			c0-0.697,0.269-1.235,0.805-1.61c0.537-0.376,1.301-0.564,2.29-0.564c1.924,0,2.887,1.043,2.887,3.128h-2.073
			c0-0.625-0.076-1.037-0.224-1.239c-0.148-0.2-0.394-0.301-0.733-0.301c-0.268,0-0.479,0.062-0.639,0.183
			c-0.159,0.122-0.239,0.304-0.239,0.547c0,0.223,0.062,0.403,0.184,0.54c0.122,0.139,0.306,0.292,0.551,0.461l0.047,0.031
			l1.691,1.143c0.139,0.074,0.284,0.181,0.439,0.317c0.152,0.138,0.302,0.288,0.446,0.453c0.144,0.164,0.266,0.333,0.367,0.507
			c0.099,0.175,0.156,0.336,0.167,0.484c0.021,0.212,0.031,0.412,0.031,0.603c0,0.359-0.047,0.69-0.144,0.992
			c-0.095,0.301-0.257,0.571-0.486,0.809c-0.229,0.239-0.547,0.427-0.956,0.563c-0.41,0.138-0.917,0.207-1.525,0.207
			c-0.307,0-0.627-0.039-0.957-0.119c-0.328-0.079-0.642-0.217-0.94-0.412c-0.297-0.196-0.545-0.479-0.741-0.85
			c-0.198-0.369-0.295-0.831-0.295-1.381c0-0.042,0-0.11,0-0.206c0.011-0.095,0.016-0.223,0.016-0.381H204.577z"/>
		<path fill="#0050A2" d="M213.144,24.188c-0.426,0.054-0.776,0.08-1.054,0.08c-0.563,0-1.021-0.108-1.373-0.325
			c-0.35-0.217-0.525-0.605-0.525-1.166v-5.586h-0.845v-1.508h0.83v-2.937h2.089v2.937h0.878v1.508h-0.878v5.078
			c0.021,0.116,0.085,0.198,0.191,0.245c0.106,0.048,0.234,0.071,0.383,0.071c0.054,0,0.112,0,0.176,0
			c0.063-0.01,0.106-0.016,0.128-0.016V24.188z"/>
		<path fill="#0050A2" d="M216.509,16.794h0.032c0.127-0.317,0.255-0.576,0.383-0.777c0.127-0.201,0.271-0.365,0.431-0.493
			c0.234-0.199,0.444-0.327,0.63-0.379c0.187-0.054,0.381-0.086,0.582-0.097h0.079v2.444c-0.063,0-0.137-0.006-0.223-0.016
			c-0.106,0-0.175,0-0.207,0c-0.501,0-0.894,0.117-1.181,0.349c-0.287,0.232-0.437,0.619-0.446,1.159v5.174h-2.074v-8.951h1.994
			V16.794z"/>
		<path fill="#0050A2" d="M221.422,15.207l0.909,4.745c0.095,0.529,0.196,1.322,0.303,2.38h0.032c0.063-0.74,0.17-1.513,0.319-2.316
			l0.909-4.809H226l-2.186,9.077c-0.064,0.244-0.106,0.407-0.128,0.492c-0.118,0.497-0.221,0.873-0.312,1.126
			c-0.09,0.255-0.213,0.487-0.367,0.699c-0.153,0.211-0.365,0.373-0.637,0.483c-0.271,0.111-0.614,0.167-1.029,0.167
			c-0.287,0-1.037-0.026-2.249-0.079V25.57c0.011,0,0.504,0.005,1.483,0.016c0.147,0.01,0.26,0.016,0.334,0.016
			c0.202,0,0.368-0.031,0.495-0.096c0.129-0.063,0.192-0.175,0.192-0.333c0-0.148-0.019-0.325-0.057-0.531
			c-0.038-0.207-0.082-0.41-0.136-0.611l-2.169-8.823H221.422z"/>
	</g>
</g>
</svg>
