<?xml version="1.0" encoding="utf-8"?>
<!-- Generator: Adobe Illustrator 16.0.0, SVG Export Plug-In . SVG Version: 6.00 Build 0)  -->
<!DOCTYPE svg PUBLIC "-//W3C//DTD SVG 1.1//EN" "http://www.w3.org/Graphics/SVG/1.1/DTD/svg11.dtd">
<svg version="1.1" id="图层_1" xmlns="http://www.w3.org/2000/svg" xmlns:xlink="http://www.w3.org/1999/xlink" x="0px" y="0px"
	 width="36px" height="36px" viewBox="0 0 36 36" enable-background="new 0 0 36 36" xml:space="preserve">
<g>
	<path fill="#CD2146" d="M35.421,27.861c-0.022-0.074-0.054-0.148-0.097-0.225c-3.305-5.832-6.611-11.667-9.918-17.501
		c-1.157-2.043-2.314-4.085-3.472-6.127c-2.169-3.828-6.015-3.014-7.966,0.43c-3.668,6.474-7.335,12.946-11.003,19.417
		C1.771,25.963-0.01,28.295,0,30.803c0.012,3.354,3.799,3.629,6.282,3.629c6.495,0,12.992,0,19.488,0c1.894,0,3.786,0,5.681,0
		C35.475,34.432,36.921,31.195,35.421,27.861z M26.218,32.381c-4.311,0-8.622,0-12.934,0c-2.825,0-5.649,0-8.473,0
		c-5.044,0-1.478-5.014-0.274-7.139c3.706-6.539,7.412-13.079,11.117-19.619c1.029-1.813,3.166-2.949,4.537-0.529
		c0.455,0.803,0.91,1.605,1.364,2.408c1.991,3.513,3.98,7.023,5.972,10.536c2.009,3.544,4.018,7.089,6.027,10.634
		C35.834,33.334,28.821,32.381,26.218,32.381z"/>
	<path fill="#CD2146" d="M26.214,21.559c-0.425-0.428-0.924-0.766-1.498-1.012c-0.573-0.248-1.184-0.372-1.83-0.372
		c-0.653,0-1.265,0.124-1.836,0.372c-0.57,0.246-1.069,0.584-1.497,1.012c-0.427,0.428-0.761,0.926-1.005,1.496
		c-0.245,0.57-0.367,1.18-0.367,1.824c0,0.654,0.122,1.266,0.367,1.836c0.244,0.57,0.578,1.07,1.005,1.498
		c0.428,0.426,0.927,0.762,1.497,1.006c0.571,0.244,1.183,0.365,1.836,0.365c0.646,0,1.257-0.121,1.83-0.365
		c0.574-0.244,1.073-0.58,1.498-1.006c0.423-0.428,0.758-0.928,1.006-1.498c0.247-0.57,0.372-1.182,0.372-1.836
		c0-0.645-0.125-1.254-0.372-1.824C26.972,22.484,26.637,21.986,26.214,21.559z M19.635,25.842
		c-0.101-0.311-0.151-0.646-0.151-1.006c0-0.467,0.089-0.904,0.264-1.313c0.177-0.41,0.417-0.768,0.722-1.072
		s0.663-0.545,1.071-0.721c0.409-0.178,0.848-0.264,1.313-0.264c0.352,0,0.687,0.051,1.002,0.154
		c0.315,0.105,0.609,0.25,0.883,0.438l-4.673,4.662C19.878,26.449,19.734,26.154,19.635,25.842z M25.948,26.15
		c-0.176,0.408-0.416,0.766-0.72,1.07c-0.306,0.305-0.663,0.545-1.072,0.721c-0.408,0.176-0.843,0.266-1.303,0.266
		c-0.345,0-0.667-0.047-0.969-0.141s-0.588-0.227-0.861-0.398l4.662-4.662c0.352,0.553,0.528,1.164,0.528,1.83
		C26.214,25.303,26.124,25.74,25.948,26.15z"/>
	<path fill="#CD2146" d="M21.807,19.225c0.35-0.067,0.709-0.105,1.079-0.105c0.148,0,0.294,0.013,0.44,0.023
		c-1.388-1.325-3.256-2.148-5.326-2.148c-2.483,0-4.688,1.172-6.104,2.991l0.813,0.632c1.229-1.575,3.139-2.593,5.291-2.593
		C19.417,18.024,20.726,18.473,21.807,19.225z"/>
	<path fill="#CD2146" d="M25.711,18.735l0.835-0.648c-1.983-2.547-5.068-4.189-8.546-4.189s-6.563,1.643-8.546,4.189l0.834,0.648
		c1.79-2.298,4.574-3.781,7.712-3.781C21.137,14.954,23.922,16.438,25.711,18.735z"/>
	<path fill="#CD2146" d="M16.451,24.732c0,0.582,0.326,1.084,0.802,1.348c-0.083-0.389-0.128-0.789-0.128-1.201
		c0-0.535,0.079-1.051,0.216-1.543C16.816,23.584,16.451,24.113,16.451,24.732z"/>
	<path fill="#CD2146" d="M19.391,20.309c-0.44-0.138-0.905-0.22-1.391-0.22c-1.489,0-2.813,0.704-3.663,1.796l0.814,0.633
		c0.661-0.85,1.689-1.396,2.849-1.396c0.168,0,0.331,0.016,0.493,0.037C18.761,20.844,19.062,20.561,19.391,20.309z"/>
</g>
</svg>
