<?xml version="1.0" encoding="utf-8"?>
<!-- Generator: Adobe Illustrator 16.0.0, SVG Export Plug-In . SVG Version: 6.00 Build 0)  -->
<!DOCTYPE svg PUBLIC "-//W3C//DTD SVG 1.1//EN" "http://www.w3.org/Graphics/SVG/1.1/DTD/svg11.dtd">
<svg version="1.1" id="图层_1" xmlns="http://www.w3.org/2000/svg" xmlns:xlink="http://www.w3.org/1999/xlink" x="0px" y="0px"
	 width="91.258px" height="41.987px" viewBox="4.699 3.344 91.258 41.987" enable-background="new 4.699 3.344 91.258 41.987"
	 xml:space="preserve">
<rect x="64.048" y="18.18" fill="#004FA1" width="0.34" height="7.347"/>
<rect x="64.741" y="25.055" fill="#004FA1" width="0.35" height="0.471"/>
<path fill="#004FA1" d="M67.07,25.525c-0.175,0-0.356-0.026-0.542-0.077c-0.187-0.052-0.356-0.147-0.51-0.294
	c-0.153-0.146-0.278-0.346-0.372-0.594c-0.096-0.252-0.142-0.58-0.142-0.987v-1.289c0-0.625,0.126-1.104,0.383-1.438
	c0.27-0.334,0.665-0.502,1.183-0.502c0.527,0,0.92,0.168,1.184,0.502c0.263,0.326,0.394,0.808,0.394,1.438v1.289
	c0,0.407-0.048,0.735-0.143,0.987c-0.096,0.248-0.219,0.447-0.373,0.594c-0.153,0.146-0.322,0.242-0.509,0.294
	C67.438,25.499,67.253,25.525,67.07,25.525z M67.07,20.68c-0.416,0-0.719,0.129-0.909,0.383c-0.212,0.27-0.318,0.677-0.318,1.222
	v1.289c0,0.553,0.106,0.963,0.318,1.231c0.197,0.254,0.5,0.381,0.909,0.381c0.401,0,0.709-0.127,0.92-0.381
	c0.205-0.254,0.307-0.666,0.307-1.231v-1.289c0-0.56-0.102-0.967-0.307-1.222C67.787,20.809,67.48,20.68,67.07,20.68z"/>
<rect x="68.813" y="25.055" fill="#004FA1" width="0.351" height="0.471"/>
<polygon fill="#004FA1" points="72.542,18.516 70.767,18.516 70.767,25.514 70.428,25.514 70.428,18.516 68.664,18.516 
	68.664,18.167 72.542,18.167 "/>
<rect x="71.461" y="25.055" fill="#004FA1" width="0.35" height="0.471"/>
<path fill="#004FA1" d="M75.336,25.525c-0.175,0-0.356-0.026-0.542-0.077c-0.186-0.052-0.356-0.147-0.51-0.294
	c-0.153-0.146-0.278-0.346-0.372-0.594c-0.095-0.252-0.143-0.58-0.143-0.987v-3.456c0-0.624,0.128-1.104,0.383-1.438
	c0.271-0.334,0.665-0.502,1.184-0.502c0.526,0,0.92,0.168,1.184,0.502c0.263,0.326,0.394,0.807,0.394,1.438v3.456
	c0,0.407-0.047,0.735-0.142,0.987c-0.094,0.248-0.22,0.447-0.373,0.594c-0.154,0.146-0.323,0.242-0.51,0.294
	C75.703,25.499,75.519,25.525,75.336,25.525z M75.336,18.516c-0.416,0-0.72,0.127-0.91,0.382c-0.211,0.269-0.318,0.676-0.318,1.22
	v3.456c0,0.553,0.107,0.963,0.318,1.231c0.198,0.254,0.5,0.381,0.91,0.381c0.402,0,0.708-0.127,0.92-0.381
	c0.205-0.254,0.307-0.666,0.307-1.231v-3.456c0-0.559-0.103-0.965-0.307-1.22S75.745,18.516,75.336,18.516z"/>
<path fill="#004FA1" d="M78.973,25.514c-0.525,0-0.92-0.168-1.182-0.502c-0.263-0.313-0.395-0.793-0.395-1.438V23.41h0.339v0.163
	c0,0.362,0.04,0.649,0.121,0.86c0.08,0.211,0.181,0.371,0.302,0.479c0.12,0.108,0.253,0.181,0.4,0.213
	c0.146,0.033,0.285,0.048,0.415,0.048c0.395,0,0.7-0.136,0.916-0.406c0.214-0.273,0.323-0.653,0.323-1.141
	c0-0.262-0.045-0.48-0.137-0.658c-0.091-0.18-0.201-0.326-0.329-0.442c-0.128-0.116-0.261-0.206-0.4-0.271
	c-0.139-0.066-0.252-0.117-0.34-0.154l-0.186-0.075c-0.109-0.044-0.245-0.106-0.406-0.19c-0.161-0.083-0.315-0.199-0.465-0.35
	c-0.149-0.148-0.279-0.333-0.389-0.555c-0.11-0.224-0.165-0.492-0.165-0.813c0-0.552,0.128-1.005,0.383-1.36
	c0.292-0.393,0.691-0.59,1.194-0.59c0.519,0,0.917,0.172,1.195,0.514c0.263,0.326,0.395,0.807,0.395,1.438v0.175h-0.351v-0.175
	c0-0.552-0.106-0.962-0.317-1.23c-0.198-0.246-0.505-0.369-0.922-0.369c-0.394,0-0.697,0.147-0.909,0.445
	c-0.219,0.299-0.329,0.685-0.329,1.154c0,0.264,0.044,0.484,0.131,0.666c0.088,0.182,0.196,0.334,0.325,0.457
	c0.126,0.124,0.26,0.223,0.399,0.295c0.138,0.072,0.264,0.131,0.373,0.174l0.175,0.076c0.095,0.036,0.222,0.094,0.383,0.17
	c0.161,0.075,0.318,0.186,0.472,0.327c0.153,0.142,0.286,0.321,0.4,0.54c0.113,0.217,0.17,0.484,0.17,0.807
	c0,0.545-0.132,0.986-0.395,1.329C79.883,25.328,79.485,25.514,78.973,25.514z"/>
<path fill="#0050A2" d="M24.494,13.319H24.39c-0.027,0.044-3.446,9.425-3.487,9.526c-0.11,0.336-0.233,0.564-0.372,0.688
	c-0.138,0.123-0.365,0.187-0.681,0.187h-0.68c-0.317,0-0.547-0.063-0.691-0.187c-0.145-0.123-0.271-0.353-0.382-0.688
	c-0.042-0.117-3.466-9.309-3.466-9.309h-0.124v11.602c0,0.16-0.027,0.263-0.081,0.306c-0.054,0.044-0.156,0.065-0.305,0.065h-1.018
	c-0.136,0-0.235-0.021-0.296-0.065c-0.061-0.043-0.092-0.144-0.092-0.306V10.853c0-0.336,0.069-0.602,0.207-0.798
	c0.136-0.197,0.403-0.296,0.801-0.296h0.555c0.301,0,0.531,0.056,0.688,0.164c0.158,0.109,0.305,0.347,0.442,0.71
	c0,0,4.022,11.149,4.051,11.207h0.082c0.014-0.057,3.647-10.125,3.784-10.496c0.137-0.371,0.226-0.608,0.267-0.71
	c0.137-0.363,0.288-0.601,0.452-0.71c0.164-0.108,0.39-0.164,0.678-0.164h0.556c0.411,0,0.682,0.099,0.812,0.296
	c0.13,0.196,0.195,0.462,0.195,0.798v14.287c0,0.16-0.027,0.262-0.082,0.305c-0.053,0.044-0.156,0.066-0.305,0.066H24.88
	c-0.136,0-0.234-0.022-0.295-0.066c-0.061-0.043-0.091-0.145-0.091-0.305V13.319z"/>
<path fill="#F08C00" d="M32.774,10.486c0,0.462-0.165,0.856-0.494,1.183c-0.329,0.327-0.724,0.491-1.188,0.491
	s-0.865-0.164-1.204-0.491c-0.338-0.326-0.507-0.721-0.507-1.183c0-0.48,0.168-0.884,0.507-1.211c0.339-0.327,0.74-0.49,1.204-0.49
	s0.86,0.163,1.188,0.49C32.608,9.602,32.774,10.006,32.774,10.486z"/>
<path fill="#0050A2" d="M32.05,25.19c0,0.147-0.025,0.241-0.078,0.278c-0.052,0.037-0.145,0.057-0.279,0.057h-1.208
	c-0.12,0-0.212-0.02-0.279-0.057c-0.067-0.037-0.101-0.131-0.101-0.278V14.177c0-0.147,0.034-0.241,0.101-0.278
	c0.067-0.036,0.16-0.055,0.279-0.055h1.208c0.134,0,0.228,0.019,0.279,0.055c0.053,0.037,0.078,0.131,0.078,0.278V25.19z"/>
<path fill="#0050A2" d="M42.767,23.645c0.644,0,1.259-0.072,1.846-0.219c0.584-0.146,1.135-0.336,1.646-0.567
	c0.162-0.073,0.494-0.192,0.639-0.185c0.129,0.01,0.274,0.147,0.275,0.418c0,0.225,0,0.911,0,0.911c0,0.247,0.006,0.345-0.02,0.402
	c-0.029,0.065-0.063,0.093-0.183,0.161c-0.312,0.174-0.684,0.343-1.028,0.453c-0.404,0.132-0.806,0.233-1.209,0.308
	c-0.402,0.072-0.802,0.123-1.197,0.151c-0.396,0.029-0.769,0.046-1.121,0.046c-1.024,0-1.943-0.154-2.755-0.46
	c-0.813-0.307-1.499-0.771-2.054-1.398c-0.557-0.626-0.985-1.421-1.286-2.382c-0.3-0.962-0.45-2.104-0.45-3.433
	c0-1.224,0.161-2.333,0.483-3.332c0.322-0.998,0.776-1.851,1.362-2.557c0.586-0.707,1.292-1.25,2.12-1.629
	c0.827-0.378,1.739-0.567,2.735-0.567c0.629,0,1.282,0.055,1.955,0.163c0.673,0.109,1.461,0.254,2.136,0.554
	c0.09,0.04,0.514,0.228,0.518,0.449l-0.005,1.358c0,0.155-0.111,0.192-0.147,0.2c-0.061,0.015-0.131,0.011-0.248-0.048
	c-1.026-0.452-3.009-0.798-4.122-0.798c-0.835,0-1.548,0.175-2.142,0.524c-0.593,0.35-1.083,0.813-1.471,1.388
	c-0.388,0.576-0.669,1.239-0.846,1.989c-0.176,0.751-0.264,1.518-0.264,2.305c0,0.802,0.077,1.552,0.231,2.25
	c0.153,0.701,0.417,1.312,0.791,1.837c0.373,0.524,0.871,0.938,1.494,1.245C41.071,23.492,41.844,23.645,42.767,23.645z"/>
<path fill="#0050A2" d="M61.54,17.586c0,2.559-0.476,4.521-1.539,5.889c-1.062,1.367-2.639,2.052-4.734,2.052
	c-2.082,0-3.639-0.679-4.672-2.03c-1.033-1.352-1.496-3.292-1.496-5.822c0-1.265,0.104-2.389,0.421-3.37
	c0.316-0.981,0.752-1.806,1.307-2.476c0.555-0.668,1.215-1.178,1.982-1.526c0.766-0.35,1.599-0.523,2.499-0.523
	c1.027,0,1.933,0.178,2.721,0.534c0.787,0.355,1.444,0.872,1.971,1.549c0.528,0.677,0.925,1.493,1.192,2.454
	C61.46,15.273,61.54,16.364,61.54,17.586z M59.611,17.674c0-0.8-0.06-1.566-0.179-2.303c-0.119-0.734-0.338-1.385-0.654-1.951
	c-0.316-0.567-0.748-1.019-1.297-1.353c-0.547-0.334-1.251-0.502-2.108-0.502c-0.759,0-1.413,0.16-1.96,0.479
	c-0.549,0.32-1.002,0.757-1.361,1.309c-0.358,0.554-0.626,1.193-0.802,1.92c-0.176,0.727-0.263,1.498-0.263,2.313
	c0,0.901,0.07,1.728,0.211,2.477c0.14,0.748,0.376,1.395,0.706,1.939c0.331,0.545,0.77,0.971,1.319,1.277
	c0.547,0.305,1.236,0.457,2.067,0.457c0.815,0,1.5-0.167,2.056-0.502c0.555-0.334,1.001-0.785,1.339-1.354
	c0.337-0.565,0.575-1.214,0.716-1.94C59.541,19.215,59.611,18.458,59.611,17.674z"/>
<g>
	<path fill="#2886AF" d="M55.089,38.119v-7.69h1.443v7.69H55.089z"/>
	<path fill="#2886AF" d="M59.212,32.931h0.02c0.069-0.157,0.155-0.286,0.258-0.391c0.103-0.102,0.211-0.178,0.325-0.229
		c0.114-0.052,0.222-0.086,0.326-0.104c0.102-0.016,0.202-0.025,0.298-0.025c0.398,0,0.722,0.121,0.969,0.359
		c0.247,0.24,0.371,0.612,0.371,1.117v4.461h-1.34v-3.856c0-0.321-0.036-0.559-0.108-0.713c-0.071-0.153-0.225-0.234-0.458-0.241
		c-0.234,0-0.401,0.093-0.505,0.277c-0.103,0.185-0.155,0.448-0.155,0.791v3.742h-1.339v-4.901c0-0.588,0.223-0.882,0.67-0.882
		h0.669V32.931L59.212,32.931z"/>
	<path fill="#2886AF" d="M65.52,37.504H65.5c-0.124,0.279-0.278,0.474-0.458,0.584c-0.183,0.109-0.415,0.171-0.696,0.184
		c-0.268,0-0.493-0.054-0.675-0.164c-0.182-0.108-0.324-0.255-0.428-0.44c-0.102-0.185-0.177-0.39-0.222-0.615
		s-0.069-0.468-0.077-0.729v-2.091c0.014-0.759,0.136-1.286,0.366-1.584c0.229-0.298,0.575-0.453,1.036-0.468
		c0.295,0,0.536,0.058,0.722,0.17c0.185,0.113,0.343,0.304,0.474,0.569h0.02c-0.027-0.156-0.041-0.328-0.041-0.513v-1.876h1.34
		v6.675c0,0.607-0.446,0.913-1.34,0.913V37.504L65.52,37.504z M65.52,34.489c0-0.021,0-0.052,0-0.093l0.01-0.102
		c0-0.138-0.009-0.268-0.025-0.391s-0.048-0.237-0.093-0.344c-0.045-0.105-0.11-0.19-0.196-0.256
		c-0.086-0.064-0.194-0.098-0.324-0.098c-0.248,0-0.404,0.072-0.469,0.216c-0.066,0.145-0.109,0.372-0.129,0.688
		c0,0.074-0.004,0.146-0.011,0.215v1.927c0.02,0.309,0.075,0.551,0.165,0.728c0.09,0.179,0.23,0.268,0.423,0.268
		c0.433,0,0.649-0.341,0.649-1.025L65.52,34.489L65.52,34.489z"/>
	<path fill="#2886AF" d="M70.715,37.258h-0.021c-0.104,0.342-0.255,0.595-0.459,0.758c-0.202,0.165-0.465,0.25-0.788,0.256
		c-0.501,0-0.844-0.121-1.026-0.363c-0.182-0.242-0.273-0.623-0.273-1.143v-4.43h1.339v3.958c0,0.191,0.009,0.345,0.026,0.461
		c0.017,0.117,0.053,0.219,0.107,0.309c0.118,0.122,0.254,0.184,0.413,0.184c0.145,0,0.259-0.034,0.345-0.103
		c0.086-0.067,0.148-0.158,0.186-0.271c0.037-0.114,0.062-0.229,0.072-0.349c0.01-0.12,0.015-0.266,0.015-0.437v-3.753h1.34v5.26
		c0,0.35-0.215,0.524-0.64,0.524h-0.639v-0.862H70.715z"/>
	<path fill="#2886AF" d="M74.343,36.109c-0.014,0.178-0.021,0.314-0.021,0.41c0,0.313,0.056,0.515,0.166,0.601
		c0.11,0.085,0.268,0.127,0.473,0.127c0.166,0,0.303-0.048,0.413-0.144c0.11-0.095,0.166-0.215,0.166-0.358
		c0-0.048-0.006-0.096-0.021-0.144c-0.007-0.123-0.057-0.229-0.15-0.318c-0.092-0.09-0.221-0.185-0.386-0.287
		c-0.035-0.021-0.076-0.048-0.123-0.081l-0.733-0.503c-0.357-0.246-0.631-0.514-0.819-0.8c-0.189-0.286-0.283-0.629-0.283-1.025
		c0-0.45,0.173-0.798,0.52-1.04c0.347-0.243,0.84-0.365,1.479-0.365c1.243,0,1.865,0.675,1.865,2.021h-1.339
		c0-0.404-0.049-0.67-0.145-0.8c-0.096-0.13-0.254-0.194-0.473-0.194c-0.173,0-0.309,0.039-0.413,0.117
		c-0.104,0.079-0.155,0.196-0.155,0.354c0,0.145,0.04,0.261,0.12,0.35c0.079,0.089,0.197,0.188,0.356,0.297l0.03,0.02l1.093,0.739
		c0.09,0.048,0.183,0.117,0.283,0.205c0.099,0.089,0.196,0.186,0.289,0.293c0.092,0.105,0.171,0.214,0.237,0.327
		c0.063,0.113,0.1,0.217,0.107,0.313c0.014,0.138,0.021,0.267,0.021,0.39c0,0.232-0.03,0.445-0.094,0.642
		c-0.061,0.194-0.165,0.368-0.314,0.522c-0.147,0.154-0.354,0.276-0.617,0.363c-0.265,0.089-0.593,0.134-0.985,0.134
		c-0.198,0-0.405-0.025-0.618-0.077c-0.212-0.051-0.416-0.141-0.607-0.266c-0.192-0.127-0.353-0.31-0.479-0.55
		c-0.129-0.238-0.192-0.536-0.192-0.892c0-0.027,0-0.071,0-0.133c0.008-0.062,0.011-0.145,0.011-0.247H74.343L74.343,36.109z"/>
	<path fill="#2886AF" d="M79.877,38.138c-0.275,0.036-0.501,0.052-0.681,0.052c-0.364,0-0.66-0.069-0.887-0.209
		c-0.226-0.141-0.339-0.392-0.339-0.754v-3.609h-0.545v-0.974h0.537v-1.897h1.349v1.897h0.568v0.974H79.31v3.282
		c0.014,0.074,0.056,0.127,0.124,0.157c0.068,0.031,0.151,0.046,0.247,0.046c0.035,0,0.073,0,0.114,0
		c0.042-0.006,0.069-0.011,0.083-0.011V38.138z"/>
	<path fill="#2886AF" d="M82.052,33.361h0.02c0.082-0.204,0.166-0.372,0.248-0.502s0.175-0.236,0.279-0.318
		c0.151-0.129,0.287-0.211,0.406-0.245c0.121-0.035,0.248-0.055,0.376-0.063h0.052v1.579c-0.04,0-0.088-0.005-0.144-0.011
		c-0.07,0-0.114,0-0.134,0c-0.325,0-0.578,0.075-0.764,0.226c-0.186,0.149-0.283,0.399-0.288,0.749v3.343h-1.34v-5.783h1.289V33.361
		L82.052,33.361z"/>
	<path fill="#2886AF" d="M85.226,32.336l0.588,3.065c0.061,0.342,0.126,0.854,0.195,1.538h0.021c0.04-0.479,0.11-0.979,0.206-1.497
		l0.588-3.106h1.36L86.771,38.2c-0.042,0.157-0.068,0.264-0.083,0.317c-0.076,0.322-0.143,0.564-0.201,0.728
		c-0.058,0.166-0.138,0.314-0.237,0.452c-0.1,0.136-0.236,0.241-0.411,0.312c-0.176,0.072-0.398,0.108-0.665,0.108
		c-0.186,0-0.67-0.018-1.454-0.052v-1.034c0.008,0,0.326,0.004,0.959,0.011c0.094,0.006,0.167,0.01,0.215,0.01
		c0.13,0,0.237-0.021,0.319-0.062c0.083-0.041,0.124-0.113,0.124-0.216c0-0.095-0.012-0.21-0.037-0.343
		c-0.024-0.133-0.053-0.265-0.088-0.395l-1.401-5.7L85.226,32.336L85.226,32.336z"/>
</g>
<polygon fill="#004FA1" points="82.952,8.313 82.952,8.126 84.285,8.126 84.285,8.313 83.729,8.313 83.729,9.785 83.508,9.785 
	83.508,8.313 "/>
<polygon fill="#004FA1" points="84.777,8.126 85.302,9.52 85.83,8.126 86.133,8.126 86.133,9.785 85.924,9.785 85.924,8.406 
	85.919,8.406 85.398,9.785 85.209,9.785 84.688,8.406 84.684,8.406 84.684,9.785 84.474,9.785 84.474,8.126 "/>
</svg>
